<svg xmlns="http://www.w3.org/2000/svg" xmlns:xlink="http://www.w3.org/1999/xlink" xmlns:svgjs="http://svgjs.dev/svgjs" version="1.1" width="742" height="742" viewBox="0 0 742 742"><g transform="matrix(1,0,0,1,-1.2121212121212466,-1.7473228411438981)"><svg xmlns="http://www.w3.org/2000/svg" xmlns:xlink="http://www.w3.org/1999/xlink" viewBox="0 0 396 147" data-background-color="#f0f2ca" preserveAspectRatio="xMidYMid meet" height="742" width="2000"><g id="tight-bounds" transform="matrix(1,0,0,1,0.2400000000000091,0.3461677326794472)"><svg viewBox="0 0 395.52 146.30766453464105" height="146.30766453464105" width="395.52"><g><svg viewBox="0 0 667.2696367197664 246.83116445021082" height="146.30766453464105" width="395.52"><g transform="matrix(1,0,0,1,0,4.0769646151948535)"><svg viewBox="0 0 244.43135999999998 238.6772352198211" height="238.6772352198211" width="244.43135999999998"><g><svg xmlns="http://www.w3.org/2000/svg" xmlns:xlink="http://www.w3.org/1999/xlink" version="1.1" x="0" y="0" viewBox="11.017823632605118 11.459999999999999 37.963698158539415 37.07000000000001" style="enable-background:new 0 0 60 60;" xml:space="preserve" height="238.6772352198211" width="244.43135999999998" class="icon-icon-0" data-fill-palette-color="accent" id="icon-0"><path d="M48.85 34.1L35.82 11.92c-0.17-0.29-0.47-0.46-0.81-0.46s-0.64 0.18-0.81 0.46L30 19.08l-4.21-7.15c-0.17-0.29-0.47-0.46-0.81-0.46s-0.64 0.18-0.81 0.46L11.15 34.1c-0.22 0.37-0.16 0.83 0.14 1.13l13.03 13.03c0.18 0.18 0.42 0.27 0.66 0.27s0.48-0.09 0.66-0.27L30 43.91l4.35 4.35c0.18 0.18 0.42 0.27 0.66 0.27s0.48-0.09 0.66-0.27l13.03-13.03C49.01 34.93 49.07 34.46 48.85 34.1zM24.99 46.28L13.13 34.42l11.86-20.18 3.93 6.68L21.17 34.1c-0.22 0.37-0.16 0.83 0.14 1.13l7.36 7.36L24.99 46.28zM30 22.77l6.85 11.65L30 41.27l-6.85-6.85L30 22.77zM35.01 46.28l-3.69-3.69 7.36-7.36c0.3-0.3 0.36-0.77 0.14-1.13l-7.74-13.17 3.93-6.68 11.86 20.18L35.01 46.28z" fill="#1dbf72" data-fill-palette-color="accent"/></svg></g></svg></g></svg></g></svg></g></svg></g></svg>
